# xmcd
#
# Track frame offsets: 
#        150
#        16007
#        31247
#        47667
#        67900
#        85295
#        101677
#        117140
#        132505
#        153610
#        168427
#        186835
#        203225
#        222025
#        237852
#
# Disc length: 3338 seconds
#
# Revision: 5
# Processed by: cddbd v1.5.2PL0 Copyright (c) Steve Scherf et al.
# Submitted via: ExactAudioCopy v0.95b3
#
DISCID=c40d080f
DTITLE=Britney Spears - Oops!...I Did It Again
DYEAR=2000
DGENRE=Pop
TTITLE0=Oops!...I Did It Again
TTITLE1=Stronger
TTITLE2=Don't Go Knockin' On My Door
TTITLE3=(I Can't Get No) Satisfaction
TTITLE4=Don't Let Me Be The Last To Know
TTITLE5=What U See (Is What U Get)
TTITLE6=Lucky
TTITLE7=One Kiss From You
TTITLE8=Where Are You Now
TTITLE9=Can't Make You Love Me
TTITLE10=When Your Eyes Say It
TTITLE11=Girl In The Mirror
TTITLE12=You Got It All
TTITLE13=Heart
TTITLE14=Dear Diary
EXTD=
EXTT0=
EXTT1=
EXTT2=
EXTT3=
EXTT4=
EXTT5=
EXTT6=
EXTT7=
EXTT8=
EXTT9=
EXTT10=
EXTT11=
EXTT12=
EXTT13=
EXTT14=
PLAYORDER=
